<svg width="18" height="18" viewBox="0 0 18 18" fill="none" xmlns="http://www.w3.org/2000/svg">
<g id="crown 1" clip-path="url(#clip0_474_39)">
<path id="Vector" d="M16.9584 3.6618C16.6894 3.54973 16.3931 3.52027 16.1072 3.57717C15.8214 3.63408 15.5589 3.77478 15.3533 3.98135L13.4493 5.88542L10.0726 2.50876C9.79645 2.23269 9.42196 2.07761 9.03148 2.07761C8.641 2.07761 8.26651 2.23269 7.99036 2.50876L4.6137 5.88542L2.70964 3.98135C2.50369 3.77547 2.24133 3.63527 1.95572 3.57848C1.6701 3.52168 1.37406 3.55084 1.10502 3.66228C0.835979 3.77371 0.606014 3.9624 0.4442 4.20451C0.282385 4.44662 0.195985 4.73127 0.195923 5.02248L0.195923 12.8169C0.197092 13.7929 0.585337 14.7287 1.2755 15.4188C1.96565 16.109 2.90137 16.4972 3.8774 16.4984H14.1856C15.1616 16.4972 16.0973 16.109 16.7875 15.4188C17.4776 14.7287 17.8659 13.7929 17.867 12.8169V5.02248C17.8671 4.73125 17.7808 4.44654 17.6191 4.20434C17.4574 3.96215 17.2275 3.77334 16.9584 3.6618Z" fill="#FFBF00" />
</g>
<defs>
<clipPath id="clip0_474_39">
<rect width="17.6711" height="17.6711" fill="white" transform="translate(0.195801 0.299896)"/>
</clipPath>
</defs>
</svg>
