<svg width="15" height="16" viewBox="0 0 15 16" fill="none" xmlns="http://www.w3.org/2000/svg">
<g id="crown 1" clip-path="url(#clip0_184_1757)">
<path id="Vector" d="M14.1122 3.14827C13.8888 3.05523 13.6428 3.03077 13.4055 3.07801C13.1682 3.12526 12.9503 3.24207 12.7796 3.41356L11.1989 4.99432L8.39556 2.19101C8.1663 1.96182 7.8554 1.83307 7.53122 1.83307C7.20704 1.83307 6.89614 1.96182 6.66688 2.19101L3.86357 4.99432L2.28281 3.41356C2.11184 3.24264 1.89403 3.12625 1.65691 3.0791C1.41979 3.03194 1.17402 3.05615 0.950658 3.14866C0.727299 3.24118 0.536382 3.39783 0.402043 3.59883C0.267704 3.79983 0.195974 4.03615 0.195923 4.27791L0.195923 10.7489C0.196893 11.5592 0.519215 12.336 1.09219 12.909C1.66516 13.4819 2.44199 13.8043 3.2523 13.8052H11.8101C12.6204 13.8043 13.3973 13.4819 13.9703 12.909C14.5432 12.336 14.8655 11.5592 14.8665 10.7489V4.27791C14.8666 4.03613 14.7949 3.79976 14.6607 3.59869C14.5264 3.39762 14.3355 3.24087 14.1122 3.14827Z" fill="#C5C4C2"/>
</g>
<defs>
<clipPath id="clip0_184_1757">
<rect width="14.6706" height="14.6706" fill="white" transform="translate(0.195801 0.357208)"/>
</clipPath>
</defs>
</svg>
