<svg width="15" height="16" viewBox="0 0 15 16" fill="none" xmlns="http://www.w3.org/2000/svg">
<g id="crown 1" clip-path="url(#clip0_184_1766)">
<path id="Vector" d="M14.1122 3.29485C13.8888 3.2018 13.6428 3.17735 13.4055 3.22459C13.1682 3.27183 12.9503 3.38864 12.7796 3.56014L11.1989 5.1409L8.39556 2.33759C8.1663 2.1084 7.8554 1.97964 7.53122 1.97964C7.20704 1.97964 6.89614 2.1084 6.66688 2.33759L3.86357 5.1409L2.28281 3.56014C2.11184 3.38922 1.89403 3.27282 1.65691 3.22567C1.41979 3.17852 1.17402 3.20273 0.950658 3.29524C0.727299 3.38775 0.536382 3.54441 0.402043 3.74541C0.267704 3.94641 0.195974 4.18272 0.195923 4.42448L0.195923 10.8954C0.196893 11.7057 0.519215 12.4826 1.09219 13.0555C1.66516 13.6285 2.44199 13.9508 3.2523 13.9518H11.8101C12.6204 13.9508 13.3973 13.6285 13.9703 13.0555C14.5432 12.4826 14.8655 11.7057 14.8665 10.8954V4.42448C14.8666 4.1827 14.7949 3.94634 14.6607 3.74527C14.5264 3.54419 14.3355 3.38745 14.1122 3.29485Z" fill="#DD9967"/>
</g>
<defs>
<clipPath id="clip0_184_1766">
<rect width="14.6706" height="14.6706" fill="white" transform="translate(0.195801 0.503754)"/>
</clipPath>
</defs>
</svg>
